<svg width="42" height="40" viewBox="0 0 42 40" fill="none" xmlns="http://www.w3.org/2000/svg">
<path d="M27.5347 18.8702C26.7968 20.046 26.2275 21.0637 26.2695 21.1316C26.3115 21.1997 26.9465 21.7378 27.6805 22.3277C29.2731 23.6075 30.9356 25.2366 31.3994 25.9721C32.6875 28.0142 32.3566 30.8926 30.6556 32.4418C29.9573 33.0778 28.0054 33.8823 27.1602 33.8823C26.9793 33.8823 26.6201 34.3153 25.9498 35.3412C25.3212 36.3034 24.5815 37.2087 23.7772 38.0001C23.1064 38.66 22.5087 39.2 22.449 39.2C22.1972 39.2 22.3683 39.4439 22.7058 39.5662C23.8655 39.9864 26.5423 40.1333 28.1321 39.8641C30.1906 39.5154 32.5401 38.4533 34.0466 37.1902C35.8056 35.7154 37.3735 33.1891 37.791 31.1569C38.1486 29.4163 38.0667 27.6493 37.5444 25.8391C36.8499 23.4317 35.4197 21.3863 33.1752 19.5908C32.8096 19.2983 32.4805 19.0276 32.444 18.9892C32.0657 18.5918 29.2447 16.7325 29.02 16.7325C28.9409 16.7325 28.2726 17.6945 27.5347 18.8702Z" fill="#2A5F58"/>
<path d="M7.71637 6.65745C5.04047 8.07756 3.04764 10.1119 1.80767 12.6893C1.54777 13.2295 1.33506 13.7329 1.33506 13.8078C1.33506 13.883 1.27723 14.0482 1.20637 14.1752C0.494051 15.4533 0.486208 19.7481 1.19294 21.452C1.25356 21.5982 1.41176 21.9871 1.54444 22.3161C2.19667 23.9331 3.9026 25.97 5.3711 26.8852C7.06641 27.9415 8.19643 28.3368 10.925 28.8275C11.7798 28.9811 16.5389 29.2235 16.8385 29.1286C16.9847 29.0822 17.0427 28.7323 17.2953 26.3709C17.3657 25.7129 17.4584 24.9272 17.5012 24.625C17.5506 24.2769 17.5235 24.0411 17.4271 23.9815C17.3435 23.9298 16.7845 23.8329 16.1849 23.766C14.4098 23.5679 11.5618 23.129 10.4367 22.8798C9.15576 22.5962 7.78803 21.6779 7.02307 20.5879C5.97401 19.093 6.00658 16.8983 7.1019 15.2823C7.27992 15.0198 7.70374 14.5066 8.04368 14.1422L8.66174 13.4796L8.45501 12.5638C8.34121 12.0602 8.24841 11.1916 8.24868 10.6339C8.24921 9.52917 8.56176 7.31618 8.8012 6.72099C9.04661 6.11091 8.77607 6.09509 7.71637 6.65745Z" fill="#1B4F54"/>
<path fill-rule="evenodd" clip-rule="evenodd" d="M10.7165 6.16343C12.1784 3.02169 15.1059 0.867466 18.8265 0.195699C20.1033 -0.0348256 21.5755 -0.0635412 22.7391 0.11939C23.7118 0.272276 25.3987 0.750874 25.5907 0.928222C25.6601 0.992566 25.7883 1.04508 25.8755 1.04508C26.1924 1.04508 28.2552 2.30007 29.0587 2.98168C30.1253 3.88649 30.8583 4.64427 30.7838 4.76499C30.7513 4.8175 30.1843 4.89554 29.5239 4.93835C28.4031 5.01093 27.6463 5.16994 27.0948 5.44859C26.9679 5.51266 26.7786 5.56518 26.6741 5.56518C26.5697 5.56518 25.9414 5.84436 25.278 6.18549C24.1533 6.7638 24.0556 6.79119 23.8329 6.58964C23.7016 6.47079 23.2372 6.20916 22.801 6.00828C22.0851 5.67844 21.8591 5.64229 20.479 5.63723C19.0386 5.63192 18.9045 5.65478 18.1614 6.03048C16.6858 6.7767 15.8252 7.88452 15.5143 9.43784C15.26 10.7085 15.272 11.4039 15.5674 12.5447C15.8272 13.5477 16.3132 15.1716 16.4826 15.6025C16.8434 16.5207 17.1959 17.642 17.2079 17.9096C17.2201 18.1829 17.1125 18.2552 16.3577 18.4815C15.8825 18.624 15.4039 18.7758 15.2942 18.8189C14.3575 19.1865 12.5231 19.7881 12.3362 19.789C12.2083 19.7897 12.1035 19.7245 12.1035 19.6441C12.1035 19.5638 12.0077 19.2796 11.8906 19.0126C11.5115 18.1487 10.8847 16.4552 10.5792 15.4695C10.4659 15.1039 10.317 14.6253 10.2484 14.406C9.86648 13.1849 9.71053 12.0673 9.71053 10.5502C9.71053 9.6451 9.76185 8.87283 9.82447 8.83401C9.88721 8.79532 9.9735 8.46735 10.0164 8.10521C10.0594 7.74293 10.1508 7.33746 10.22 7.20385C10.289 7.07037 10.5125 6.60214 10.7165 6.16343ZM22.7391 25.985C22.7391 25.8975 22.8108 25.7541 22.8986 25.6663C23.1053 25.4596 23.1269 25.4619 23.7444 25.757C24.6505 26.1899 25.5135 26.5703 25.5895 26.5703C25.6298 26.5703 26.116 26.7797 26.6701 27.0356C27.2241 27.2916 27.7627 27.5009 27.8671 27.5009C28.0806 27.5009 28.1378 28.2329 27.9341 28.3587C27.8666 28.4004 27.7727 28.6109 27.7254 28.8264C27.6779 29.0419 27.4939 29.5196 27.3163 29.8878C27.1386 30.2561 26.9933 30.6076 26.9933 30.669C26.9933 30.8479 25.7518 33.2104 25.1998 34.0817C23.8549 36.2051 22.0721 37.8839 20.1312 38.8546C18.3983 39.7216 17.4362 39.9085 15.1113 39.8303C13.415 39.7733 12.7722 39.6643 12.0722 39.3152C11.9452 39.2519 11.7645 39.2 11.6707 39.2C11.4646 39.2 9.21479 38.0439 8.69537 37.6712C8.00978 37.1791 6.49422 35.6831 5.89291 34.905C5.29878 34.1363 4.26155 32.2393 4.26036 31.9195C4.26009 31.8271 4.20731 31.6476 4.14323 31.5206C3.89051 31.0205 3.71263 30.2626 3.58567 29.1445C3.51255 28.5014 3.41842 27.8385 3.37655 27.6715C3.29239 27.336 3.47758 27.2714 3.75185 27.5406C4.27458 28.0539 5.52466 28.8602 6.51988 29.3259C8.09526 30.0632 8.34932 30.1598 8.71186 30.1598C8.88695 30.1598 9.06708 30.2197 9.11228 30.2928C9.15749 30.3659 9.33603 30.4257 9.50925 30.4257C9.76225 30.4257 9.89081 30.5718 10.1649 31.1703C10.5757 32.0677 11.8314 33.3287 12.6576 33.6737C14.6479 34.5046 15.3845 34.5882 16.7538 34.1387C17.7547 33.8101 18.0815 33.6123 18.9249 32.8248C19.6325 32.1641 20.3891 30.9773 21.2595 29.1628C21.5751 28.5047 22.0371 27.5563 22.2862 27.0552C22.5352 26.5541 22.7391 26.0726 22.7391 25.985Z" fill="#DC7D2C"/>
<path d="M29.5857 6.77789C26.9788 7.02796 24.8829 8.05921 21.5691 10.7221C20.8522 11.2983 20.1191 11.8969 19.9402 12.0522C19.7612 12.2076 19.4952 12.4234 19.349 12.532C19.0925 12.7222 19.119 12.7664 20.0904 13.767C20.6444 14.3378 21.4172 15.1489 21.8079 15.5692C22.4511 16.2616 22.9083 16.509 23.0271 16.2293C23.0929 16.0741 26.3912 13.9101 27.4213 13.3461C28.8347 12.5724 29.5877 12.3453 30.7392 12.3453C31.3026 12.3453 31.7957 12.3974 31.8351 12.4611C31.8744 12.5248 32.0902 12.6136 32.3145 12.6584C32.5389 12.7033 32.9739 12.9141 33.2811 13.1269C34.8113 14.1862 35.6461 15.4813 35.8237 17.0715C35.9026 17.7786 35.857 18.1842 35.5606 19.4126C35.4902 19.7044 35.6231 19.9722 36.3194 20.942C36.7837 21.5888 37.343 22.4766 37.5623 22.9149C37.7817 23.3534 37.996 23.742 38.0385 23.7785C38.105 23.8355 38.5074 24.9693 38.6402 25.4736C38.6643 25.565 38.7403 25.6397 38.8092 25.6397C39.1099 25.6397 40.8194 22.4929 40.8194 21.9394C40.8194 21.7897 40.8692 21.6364 40.9299 21.5988C41.3557 21.3357 41.5715 17.1086 41.2326 15.6689C40.5348 12.7044 38.9064 10.2055 36.6204 8.59138C35.5759 7.85394 33.8374 7.02756 33.3302 7.02756C33.1645 7.02756 32.972 6.97492 32.9026 6.91071C32.7289 6.74998 30.7168 6.66941 29.5857 6.77789Z" fill="#6C8636"/>
</svg>
