<svg width="287" height="80" viewBox="0 0 287 80" fill="none" xmlns="http://www.w3.org/2000/svg">
<path d="M54.402 37.7483C52.9261 40.0998 51.7875 42.1351 51.8715 42.271C51.9556 42.4071 53.2255 43.4835 54.6934 44.6632C57.8788 47.2229 61.2037 50.4811 62.1314 51.952C64.7076 56.0363 64.0458 61.7931 60.6437 64.8914C59.247 66.1635 55.3433 67.7723 53.653 67.7723C53.2911 67.7723 52.5727 68.6383 51.2321 70.6902C49.975 72.6147 48.4956 74.4251 46.8869 76.008C45.5453 77.3278 44.3498 78.4079 44.2305 78.4079C43.7269 78.4079 44.0691 78.8955 44.7442 79.1401C47.0635 79.9806 52.4172 80.2744 55.5966 79.736C59.7137 79.0386 64.4127 76.9144 67.4257 74.3882C70.9437 71.4387 74.0796 66.386 74.9145 62.3216C75.6297 58.8404 75.4659 55.3064 74.4213 51.6861C73.0323 46.8711 70.1718 42.7805 65.6828 39.1894C64.9517 38.6044 64.2936 38.0631 64.2205 37.9862C63.464 37.1915 57.8219 33.4728 57.3725 33.4728C57.2143 33.4728 55.8777 35.3967 54.402 37.7483Z" fill="#2A5F58"/>
<path d="M14.7653 13.3227C9.41347 16.1629 5.4278 20.2315 2.94786 25.3863C2.42805 26.4669 2.00263 27.4735 2.00263 27.6235C2.00263 27.7737 1.88697 28.1042 1.74525 28.3582C0.320623 30.9144 0.304936 39.5039 1.7184 42.9118C1.83964 43.2043 2.15605 43.982 2.4214 44.6401C3.72585 47.8741 7.13773 51.9477 10.0747 53.7781C13.4653 55.8909 15.7254 56.6814 21.1825 57.6627C22.8921 57.9701 32.4104 58.4548 33.0094 58.265C33.3019 58.1722 33.4179 57.4724 33.923 52.7497C34.064 51.4335 34.2493 49.8621 34.3349 49.2578C34.4338 48.5617 34.3796 48.09 34.1868 47.9709C34.0196 47.8674 32.9015 47.6736 31.7023 47.5399C28.1522 47.1437 22.4561 46.2657 20.2059 45.7674C17.644 45.2003 14.9086 43.3635 13.3787 41.1835C11.2805 38.1939 11.3457 33.8043 13.5363 30.5725C13.8924 30.0473 14.74 29.021 15.4199 28.2922L16.656 26.967L16.2425 25.1353C16.0149 24.1281 15.8293 22.3911 15.8299 21.2757C15.8309 19.0662 16.456 14.6402 16.9349 13.4498C17.4257 12.2296 16.8847 12.198 14.7653 13.3227Z" fill="#1B4F54"/>
<path fill-rule="evenodd" clip-rule="evenodd" d="M20.7656 12.3347C23.6893 6.0512 29.5444 1.74274 36.9855 0.399211C39.5391 -0.0618388 42.4836 -0.11927 44.8106 0.246592C46.7561 0.552364 50.13 1.50956 50.5139 1.86426C50.6527 1.99295 50.909 2.09797 51.0835 2.09797C51.7173 2.09797 55.8429 4.60795 57.4499 5.97116C59.5831 7.7808 61.0492 9.29636 60.9 9.53779C60.8352 9.64281 59.7012 9.79889 58.3802 9.88451C56.1388 10.0297 54.6251 10.3477 53.5222 10.905C53.2683 11.0331 52.8896 11.1382 52.6806 11.1382C52.4719 11.1382 51.2153 11.6965 49.8886 12.3788C47.6391 13.5354 47.4437 13.5902 46.9983 13.1871C46.7357 12.9494 45.8069 12.4261 44.9345 12.0244C43.5027 11.3647 43.0507 11.2924 40.2905 11.2823C37.4096 11.2716 37.1416 11.3174 35.6553 12.0688C32.7042 13.5612 30.9828 15.7769 30.3612 18.8835C29.8526 21.4249 29.8765 22.8157 30.4673 25.0973C30.9868 27.1032 31.9589 30.351 32.2977 31.2127C33.0193 33.0492 33.7244 35.2917 33.7483 35.8269C33.7728 36.3736 33.5574 36.5183 32.048 36.9708C31.0974 37.2558 30.1402 37.5595 29.9209 37.6456C28.0474 38.3808 24.3787 39.5839 24.0049 39.5858C23.7491 39.5871 23.5396 39.4569 23.5396 39.296C23.5396 39.1354 23.3479 38.5669 23.1136 38.033C22.3556 36.3053 21.1019 32.9181 20.4909 30.9468C20.2644 30.2156 19.9666 29.2584 19.8294 28.8197C19.0655 26.3775 18.7536 24.1425 18.7536 21.1082C18.7536 19.298 18.8562 17.7535 18.9815 17.6758C19.1069 17.5985 19.2795 16.9425 19.3654 16.2182C19.4513 15.4937 19.6342 14.6827 19.7725 14.4155C19.9105 14.1486 20.3574 13.2121 20.7656 12.3347ZM44.8106 51.9778C44.8106 51.8028 44.9542 51.5159 45.1297 51.3405C45.5431 50.927 45.5862 50.9315 46.8213 51.5218C48.6336 52.3875 50.3594 53.1485 50.5115 53.1485C50.5921 53.1485 51.5644 53.5673 52.6727 54.0791C53.7806 54.5909 54.858 55.0097 55.0667 55.0097C55.4937 55.0097 55.6081 56.4737 55.2007 56.7252C55.0657 56.8087 54.8779 57.2296 54.7833 57.6606C54.6884 58.0916 54.3204 59.047 53.9651 59.7835C53.6097 60.52 53.319 61.223 53.319 61.3458C53.319 61.7037 50.8362 66.4286 49.7322 68.1712C47.0422 72.4179 43.4767 75.7756 39.595 77.7171C36.1291 79.451 34.2049 79.8248 29.555 79.6684C26.1626 79.5544 24.877 79.3364 23.4768 78.6381C23.2229 78.5116 22.8616 78.4079 22.6738 78.4079C22.2617 78.4079 17.7621 76.0957 16.7233 75.3502C15.3521 74.3661 12.321 71.3741 11.1183 69.8178C9.93009 68.2805 7.85563 64.4865 7.85323 63.8468C7.8527 63.662 7.74715 63.303 7.61899 63.0491C7.11353 62.0488 6.75778 60.533 6.50385 58.2969C6.35761 57.0105 6.16937 55.6848 6.08561 55.3508C5.9173 54.6797 6.28769 54.5505 6.83621 55.0889C7.88168 56.1155 10.3818 57.7281 12.3723 58.6596C15.523 60.1342 16.0312 60.3275 16.7562 60.3275C17.1064 60.3275 17.4667 60.4471 17.5571 60.5934C17.6475 60.7396 18.0046 60.8593 18.351 60.8593C18.857 60.8593 19.1141 61.1515 19.6624 62.3485C20.484 64.1432 22.9953 66.6652 24.6478 67.3552C28.6284 69.017 30.1014 69.1842 32.8401 68.2852C34.8419 67.628 35.4955 67.2323 37.1823 65.6575C38.5976 64.336 40.1108 61.9624 41.8516 58.3333C42.4828 57.0172 43.4067 55.1203 43.905 54.1182C44.403 53.1161 44.8106 52.153 44.8106 51.9778Z" fill="#DC7D2C"/>
<path d="M58.5039 13.5636C53.2901 14.0637 49.0983 16.1262 42.4708 21.452C41.0369 22.6043 39.5708 23.8016 39.2129 24.1122C38.855 24.423 38.323 24.8545 38.0305 25.0718C37.5176 25.4523 37.5705 25.5405 39.5133 27.5419C40.6213 28.6833 42.1669 30.3055 42.9483 31.1463C44.2347 32.531 45.1491 33.0258 45.3868 32.4664C45.5184 32.1561 52.1148 27.828 54.1752 26.7001C57.0019 25.1526 58.5079 24.6985 60.811 24.6985C61.9378 24.6985 62.924 24.8027 63.0027 24.9301C63.0814 25.0574 63.5129 25.235 63.9615 25.3246C64.4103 25.4145 65.2803 25.8359 65.8948 26.2616C68.9551 28.3802 70.6246 30.9705 70.9799 34.1508C71.1378 35.565 71.0466 36.3763 70.4537 38.8331C70.313 39.4167 70.5786 39.9522 71.9714 41.8919C72.8998 43.1854 74.0184 44.961 74.4572 45.8376C74.8959 46.7145 75.3245 47.4917 75.4096 47.5648C75.5425 47.6789 76.3474 49.9464 76.613 50.9549C76.6611 51.1378 76.8132 51.2873 76.9509 51.2873C77.5524 51.2873 80.9714 44.9937 80.9714 43.8865C80.9714 43.5872 81.0709 43.2806 81.1924 43.2053C82.044 42.6791 82.4755 34.225 81.7978 31.3457C80.4022 25.4166 77.1453 20.4187 72.5733 17.1906C70.4843 15.7157 67.0072 14.0629 65.9929 14.0629C65.6616 14.0629 65.2766 13.9576 65.1378 13.8292C64.7903 13.5078 60.766 13.3466 58.5039 13.5636Z" fill="#6C8636"/>
<path d="M121.046 17.1267C120.953 16.1934 120.556 15.4683 119.854 14.9515C119.152 14.4347 118.199 14.1763 116.996 14.1763C116.178 14.1763 115.488 14.292 114.925 14.5234C114.362 14.7471 113.93 15.0595 113.629 15.4606C113.336 15.8617 113.189 16.3168 113.189 16.8259C113.174 17.2501 113.263 17.6204 113.456 17.9366C113.656 18.2529 113.93 18.5267 114.277 18.7581C114.624 18.9818 115.025 19.1785 115.48 19.3482C115.936 19.5102 116.421 19.649 116.938 19.7647L119.067 20.2738C120.101 20.5052 121.05 20.8138 121.914 21.1995C122.777 21.5851 123.526 22.0595 124.158 22.6226C124.791 23.1857 125.28 23.8491 125.628 24.6127C125.982 25.3763 126.164 26.2518 126.171 27.2392C126.164 28.6893 125.793 29.9466 125.061 31.0111C124.336 32.0679 123.287 32.8893 121.914 33.4756C120.548 34.0541 118.901 34.3434 116.973 34.3434C115.06 34.3434 113.394 34.0502 111.975 33.464C110.563 32.8778 109.46 32.01 108.665 30.8607C107.879 29.7037 107.466 28.2728 107.427 26.5681H112.275C112.329 27.3626 112.557 28.026 112.958 28.5582C113.367 29.0827 113.911 29.48 114.59 29.7499C115.276 30.0122 116.051 30.1433 116.915 30.1433C117.764 30.1433 118.5 30.0199 119.125 29.7731C119.758 29.5262 120.247 29.183 120.595 28.7433C120.942 28.3036 121.115 27.7984 121.115 27.2276C121.115 26.6954 120.957 26.248 120.641 25.8854C120.332 25.5229 119.877 25.2144 119.275 24.9598C118.682 24.7053 117.953 24.4739 117.089 24.2656L114.509 23.6177C112.511 23.1317 110.933 22.3719 109.776 21.3383C108.619 20.3047 108.045 18.9124 108.052 17.1614C108.045 15.7267 108.426 14.4732 109.198 13.4011C109.977 12.3289 111.045 11.492 112.403 10.8903C113.76 10.2886 115.303 9.98781 117.031 9.98781C118.79 9.98781 120.325 10.2886 121.636 10.8903C122.955 11.492 123.981 12.3289 124.714 13.4011C125.446 14.4732 125.824 15.7151 125.847 17.1267H121.046ZM137.548 34.3549C135.72 34.3549 134.146 33.9847 132.827 33.2442C131.516 32.496 130.505 31.4392 129.796 30.0739C129.086 28.7009 128.731 27.0772 128.731 25.2028C128.731 23.3747 129.086 21.7703 129.796 20.3895C130.505 19.0088 131.504 17.9328 132.793 17.1614C134.088 16.3901 135.608 16.0044 137.351 16.0044C138.524 16.0044 139.615 16.1934 140.626 16.5713C141.644 16.9416 142.531 17.5008 143.287 18.249C144.05 18.9972 144.644 19.9383 145.069 21.0722C145.493 22.1984 145.705 23.5174 145.705 25.0292V26.383H130.698V23.3284H141.065C141.065 22.6188 140.911 21.9901 140.602 21.4424C140.294 20.8948 139.866 20.4667 139.318 20.1581C138.778 19.8419 138.15 19.6837 137.432 19.6837C136.684 19.6837 136.021 19.8573 135.442 20.2044C134.871 20.5438 134.424 21.0028 134.1 21.5813C133.776 22.1521 133.61 22.7885 133.602 23.4904V26.3945C133.602 27.2739 133.764 28.0337 134.088 28.6739C134.42 29.3141 134.887 29.8078 135.488 30.1549C136.09 30.502 136.804 30.6756 137.629 30.6756C138.177 30.6756 138.678 30.5984 139.133 30.4442C139.588 30.2899 139.978 30.0585 140.302 29.7499C140.626 29.4414 140.872 29.0634 141.042 28.616L145.601 28.9169C145.369 30.0122 144.895 30.9687 144.178 31.7863C143.468 32.5962 142.55 33.2287 141.424 33.6838C140.306 34.1312 139.013 34.3549 137.548 34.3549ZM163.708 21.3036L159.196 21.5813C159.119 21.1956 158.953 20.8485 158.698 20.54C158.444 20.2237 158.108 19.973 157.692 19.7879C157.283 19.595 156.793 19.4986 156.222 19.4986C155.459 19.4986 154.815 19.6606 154.29 19.9846C153.766 20.3008 153.503 20.7251 153.503 21.2573C153.503 21.6816 153.673 22.0402 154.013 22.3334C154.352 22.6265 154.934 22.8617 155.76 23.0391L158.976 23.6871C160.704 24.0419 161.992 24.6127 162.841 25.3995C163.689 26.1863 164.113 27.2199 164.113 28.5003C164.113 29.6651 163.77 30.6871 163.084 31.5665C162.405 32.4458 161.472 33.1323 160.284 33.626C159.103 34.1119 157.742 34.3549 156.199 34.3549C153.847 34.3549 151.972 33.8651 150.576 32.8855C149.188 31.8982 148.374 30.556 148.135 28.859L152.983 28.6045C153.129 29.3218 153.484 29.8695 154.047 30.2475C154.61 30.6177 155.332 30.8028 156.211 30.8028C157.075 30.8028 157.769 30.637 158.294 30.3053C158.826 29.9659 159.096 29.5301 159.103 28.9979C159.096 28.5505 158.907 28.1841 158.536 27.8987C158.166 27.6056 157.595 27.3819 156.824 27.2276L153.746 26.6144C152.011 26.2673 150.719 25.6656 149.87 24.8094C149.03 23.9532 148.609 22.8617 148.609 21.535C148.609 20.3934 148.918 19.4099 149.535 18.5846C150.16 17.7592 151.035 17.1228 152.161 16.6755C153.295 16.2281 154.622 16.0044 156.141 16.0044C158.386 16.0044 160.152 16.4788 161.441 17.4275C162.737 18.3763 163.492 19.6683 163.708 21.3036ZM172.285 34.3434C171.151 34.3434 170.141 34.1467 169.254 33.7533C168.366 33.3522 167.665 32.7621 167.148 31.983C166.639 31.1962 166.384 30.2166 166.384 29.0441C166.384 28.0568 166.565 27.2276 166.928 26.5565C167.29 25.8854 167.784 25.3455 168.409 24.9367C169.034 24.5279 169.743 24.2193 170.538 24.011C171.34 23.8028 172.181 23.6562 173.06 23.5714C174.094 23.4634 174.927 23.3631 175.559 23.2705C176.192 23.1703 176.651 23.0237 176.936 22.8309C177.222 22.638 177.364 22.3526 177.364 21.9747V21.9052C177.364 21.1725 177.133 20.6055 176.67 20.2044C176.215 19.8033 175.567 19.6028 174.726 19.6028C173.839 19.6028 173.133 19.7994 172.609 20.1928C172.084 20.5785 171.737 21.0645 171.568 21.6507L167.009 21.2805C167.24 20.2006 167.695 19.2672 168.374 18.4804C169.053 17.6859 169.928 17.0766 171.001 16.6523C172.081 16.2204 173.33 16.0044 174.749 16.0044C175.737 16.0044 176.682 16.1201 177.584 16.3515C178.494 16.5829 179.3 16.9416 180.002 17.4275C180.712 17.9135 181.271 18.5383 181.68 19.3019C182.089 20.0579 182.293 20.9642 182.293 22.021V34.0078H177.619V31.5433H177.48C177.195 32.0987 176.813 32.5885 176.335 33.0128C175.856 33.4293 175.282 33.7571 174.611 33.9962C173.939 34.2276 173.164 34.3434 172.285 34.3434ZM173.697 30.9417C174.422 30.9417 175.062 30.799 175.617 30.5136C176.173 30.2205 176.608 29.8271 176.925 29.3334C177.241 28.8397 177.399 28.2805 177.399 27.6557V25.7697C177.245 25.87 177.033 25.9626 176.763 26.0474C176.5 26.1246 176.203 26.1978 175.872 26.2673C175.54 26.329 175.208 26.3868 174.877 26.4408C174.545 26.4871 174.244 26.5295 173.974 26.5681C173.396 26.6529 172.89 26.7879 172.458 26.9731C172.027 27.1582 171.691 27.4089 171.452 27.7251C171.213 28.0337 171.093 28.4193 171.093 28.8822C171.093 29.5532 171.336 30.0662 171.822 30.421C172.316 30.7681 172.941 30.9417 173.697 30.9417Z" fill="#4B4B4B"/>
<path d="M108.191 69.0078V45.3118H123.88V49.4424H113.201V55.0887H122.839V59.2193H113.201V69.0078H108.191ZM133.883 69.3549C132.086 69.3549 130.531 68.9731 129.22 68.2095C127.917 67.4381 126.91 66.3659 126.2 64.9929C125.491 63.6122 125.136 62.0116 125.136 60.1912C125.136 58.3554 125.491 56.751 126.2 55.378C126.91 53.9972 127.917 52.9251 129.22 52.1614C130.531 51.3901 132.086 51.0044 133.883 51.0044C135.68 51.0044 137.231 51.3901 138.534 52.1614C139.846 52.9251 140.856 53.9972 141.566 55.378C142.275 56.751 142.63 58.3554 142.63 60.1912C142.63 62.0116 142.275 63.6122 141.566 64.9929C140.856 66.3659 139.846 67.4381 138.534 68.2095C137.231 68.9731 135.68 69.3549 133.883 69.3549ZM133.906 65.5367C134.724 65.5367 135.406 65.3053 135.954 64.8425C136.502 64.372 136.914 63.7317 137.192 62.9218C137.478 62.1119 137.62 61.1901 137.62 60.1565C137.62 59.1229 137.478 58.2011 137.192 57.3912C136.914 56.5813 136.502 55.9411 135.954 55.4705C135.406 55 134.724 54.7647 133.906 54.7647C133.081 54.7647 132.387 55 131.824 55.4705C131.268 55.9411 130.848 56.5813 130.562 57.3912C130.285 58.2011 130.146 59.1229 130.146 60.1565C130.146 61.1901 130.285 62.1119 130.562 62.9218C130.848 63.7317 131.268 64.372 131.824 64.8425C132.387 65.3053 133.081 65.5367 133.906 65.5367ZM157.232 61.4408V51.2358H162.161V69.0078H157.429V65.7797H157.244C156.842 66.821 156.175 67.6579 155.242 68.2905C154.316 68.923 153.186 69.2392 151.852 69.2392C150.664 69.2392 149.619 68.9692 148.716 68.4293C147.814 67.8893 147.108 67.1218 146.599 66.1268C146.097 65.1318 145.843 63.94 145.835 62.5516V51.2358H150.764V61.6722C150.772 62.7213 151.053 63.5505 151.609 64.1598C152.164 64.7692 152.909 65.0739 153.842 65.0739C154.436 65.0739 154.991 64.9389 155.508 64.6689C156.025 64.3913 156.441 63.9824 156.758 63.4425C157.082 62.9025 157.24 62.2353 157.232 61.4408ZM171.032 58.7334V69.0078H166.103V51.2358H170.801V54.3713H171.009C171.403 53.3377 172.062 52.5201 172.988 51.9184C173.913 51.3091 175.036 51.0044 176.355 51.0044C177.589 51.0044 178.665 51.2744 179.583 51.8143C180.501 52.3543 181.214 53.1256 181.723 54.1284C182.233 55.1234 182.487 56.3113 182.487 57.692V69.0078H177.558V58.5714C177.566 57.4838 177.288 56.6353 176.725 56.0259C176.162 55.4088 175.387 55.1003 174.399 55.1003C173.736 55.1003 173.15 55.243 172.641 55.5284C172.139 55.8138 171.746 56.2303 171.461 56.778C171.183 57.3179 171.04 57.9697 171.032 58.7334ZM192.921 69.2971C191.571 69.2971 190.348 68.95 189.253 68.2557C188.165 67.5538 187.301 66.524 186.661 65.1665C186.029 63.8012 185.712 62.1273 185.712 60.1449C185.712 58.1086 186.04 56.4154 186.696 55.0656C187.351 53.708 188.223 52.6937 189.311 52.0226C190.406 51.3438 191.605 51.0044 192.909 51.0044C193.904 51.0044 194.733 51.1741 195.397 51.5135C196.068 51.8452 196.608 52.2617 197.017 52.7631C197.433 53.2567 197.749 53.7427 197.965 54.2209H198.116V45.3118H203.033V69.0078H198.174V66.1615H197.965C197.734 66.6552 197.406 67.145 196.982 67.6309C196.565 68.1092 196.021 68.5064 195.35 68.8227C194.687 69.1389 193.877 69.2971 192.921 69.2971ZM194.483 65.3747C195.277 65.3747 195.948 65.1588 196.496 64.7268C197.051 64.2871 197.475 63.6739 197.769 62.8871C198.069 62.1003 198.22 61.1786 198.22 60.1218C198.22 59.065 198.073 58.1471 197.78 57.3681C197.487 56.589 197.063 55.9873 196.507 55.5631C195.952 55.1388 195.277 54.9267 194.483 54.9267C193.673 54.9267 192.99 55.1466 192.435 55.5862C191.879 56.0259 191.459 56.6353 191.174 57.4143C190.888 58.1934 190.745 59.0959 190.745 60.1218C190.745 61.1554 190.888 62.0695 191.174 62.864C191.467 63.6508 191.887 64.2678 192.435 64.7152C192.99 65.1549 193.673 65.3747 194.483 65.3747ZM212.153 69.3434C211.02 69.3434 210.009 69.1467 209.122 68.7533C208.235 68.3522 207.533 67.7621 207.016 66.983C206.507 66.1962 206.253 65.2166 206.253 64.0441C206.253 63.0568 206.434 62.2276 206.796 61.5565C207.159 60.8854 207.653 60.3455 208.277 59.9367C208.902 59.5279 209.612 59.2193 210.406 59.011C211.208 58.8028 212.049 58.6562 212.929 58.5714C213.962 58.4634 214.795 58.3631 215.428 58.2705C216.06 58.1703 216.519 58.0237 216.805 57.8309C217.09 57.638 217.233 57.3526 217.233 56.9747V56.9052C217.233 56.1725 217.001 55.6055 216.539 55.2044C216.083 54.8033 215.436 54.6028 214.595 54.6028C213.708 54.6028 213.002 54.7994 212.477 55.1928C211.953 55.5785 211.606 56.0645 211.436 56.6507L206.877 56.2805C207.109 55.2006 207.564 54.2672 208.243 53.4804C208.921 52.6859 209.797 52.0766 210.869 51.6523C211.949 51.2204 213.199 51.0044 214.618 51.0044C215.605 51.0044 216.55 51.1201 217.453 51.3515C218.363 51.5829 219.169 51.9416 219.871 52.4275C220.58 52.9135 221.14 53.5383 221.549 54.3019C221.957 55.0579 222.162 55.9642 222.162 57.021V69.0078H217.487V66.5433H217.348C217.063 67.0987 216.681 67.5885 216.203 68.0128C215.725 68.4293 215.15 68.7571 214.479 68.9962C213.808 69.2276 213.033 69.3434 212.153 69.3434ZM213.565 65.9417C214.29 65.9417 214.93 65.799 215.486 65.5136C216.041 65.2205 216.477 64.8271 216.793 64.3334C217.109 63.8397 217.267 63.2805 217.267 62.6557V60.7697C217.113 60.87 216.901 60.9626 216.631 61.0474C216.369 61.1246 216.072 61.1978 215.74 61.2673C215.409 61.329 215.077 61.3868 214.745 61.4408C214.413 61.4871 214.113 61.5295 213.843 61.5681C213.264 61.6529 212.759 61.7879 212.327 61.9731C211.895 62.1582 211.559 62.4089 211.32 62.7251C211.081 63.0337 210.962 63.4193 210.962 63.8822C210.962 64.5532 211.205 65.0662 211.691 65.421C212.184 65.7681 212.809 65.9417 213.565 65.9417ZM235.439 51.2358V54.9383H224.736V51.2358H235.439ZM227.166 46.9779H232.095V63.5466C232.095 64.0017 232.164 64.3565 232.303 64.6111C232.442 64.8579 232.635 65.0315 232.882 65.1318C233.136 65.232 233.429 65.2822 233.761 65.2822C233.992 65.2822 234.224 65.2629 234.455 65.2243C234.687 65.178 234.864 65.1433 234.987 65.1202L235.763 68.788C235.516 68.8651 235.169 68.9538 234.721 69.0541C234.274 69.1621 233.73 69.2276 233.09 69.2508C231.902 69.2971 230.861 69.1389 229.966 68.7764C229.079 68.4139 228.388 67.8508 227.895 67.0871C227.401 66.3235 227.158 65.3593 227.166 64.1946V46.9779ZM238.649 69.0078V51.2358H243.578V69.0078H238.649ZM241.126 48.9449C240.393 48.9449 239.764 48.7019 239.24 48.2159C238.723 47.7223 238.464 47.1322 238.464 46.4457C238.464 45.7669 238.723 45.1845 239.24 44.6986C239.764 44.2049 240.393 43.9581 241.126 43.9581C241.858 43.9581 242.483 44.2049 243 44.6986C243.524 45.1845 243.787 45.7669 243.787 46.4457C243.787 47.1322 243.524 47.7223 243 48.2159C242.483 48.7019 241.858 48.9449 241.126 48.9449ZM255.557 69.3549C253.759 69.3549 252.205 68.9731 250.894 68.2095C249.59 67.4381 248.584 66.3659 247.874 64.9929C247.164 63.6122 246.809 62.0116 246.809 60.1912C246.809 58.3554 247.164 56.751 247.874 55.378C248.584 53.9972 249.59 52.9251 250.894 52.1614C252.205 51.3901 253.759 51.0044 255.557 51.0044C257.354 51.0044 258.904 51.3901 260.208 52.1614C261.519 52.9251 262.53 53.9972 263.239 55.378C263.949 56.751 264.304 58.3554 264.304 60.1912C264.304 62.0116 263.949 63.6122 263.239 64.9929C262.53 66.3659 261.519 67.4381 260.208 68.2095C258.904 68.9731 257.354 69.3549 255.557 69.3549ZM255.58 65.5367C256.397 65.5367 257.08 65.3053 257.628 64.8425C258.175 64.372 258.588 63.7317 258.866 62.9218C259.151 62.1119 259.294 61.1901 259.294 60.1565C259.294 59.1229 259.151 58.2011 258.866 57.3912C258.588 56.5813 258.175 55.9411 257.628 55.4705C257.08 55 256.397 54.7647 255.58 54.7647C254.754 54.7647 254.06 55 253.497 55.4705C252.942 55.9411 252.521 56.5813 252.236 57.3912C251.958 58.2011 251.819 59.1229 251.819 60.1565C251.819 61.1901 251.958 62.1119 252.236 62.9218C252.521 63.7317 252.942 64.372 253.497 64.8425C254.06 65.3053 254.754 65.5367 255.58 65.5367ZM272.438 58.7334V69.0078H267.509V51.2358H272.206V54.3713H272.415C272.808 53.3377 273.467 52.5201 274.393 51.9184C275.319 51.3091 276.441 51.0044 277.76 51.0044C278.994 51.0044 280.07 51.2744 280.988 51.8143C281.906 52.3543 282.62 53.1256 283.129 54.1284C283.638 55.1234 283.892 56.3113 283.892 57.692V69.0078H278.963V58.5714C278.971 57.4838 278.693 56.6353 278.13 56.0259C277.567 55.4088 276.792 55.1003 275.805 55.1003C275.141 55.1003 274.555 55.243 274.046 55.5284C273.545 55.8138 273.151 56.2303 272.866 56.778C272.588 57.3179 272.445 57.9697 272.438 58.7334Z" fill="#4B4B4B"/>
</svg>
