<svg width="82" height="80" viewBox="0 0 82 80" fill="none" xmlns="http://www.w3.org/2000/svg">
<path d="M53.7345 37.7404C52.2586 40.092 51.12 42.1273 51.2041 42.2632C51.2881 42.3993 52.558 43.4757 54.0259 44.6554C57.2113 47.2151 60.5362 50.4733 61.4639 51.9442C64.0401 56.0285 63.3783 61.7852 59.9762 64.8836C58.5795 66.1556 54.6758 67.7645 52.9855 67.7645C52.6236 67.7645 51.9052 68.6305 50.5646 70.6824C49.3075 72.6069 47.8281 74.4173 46.2195 76.0002C44.8778 77.32 43.6824 78.4001 43.563 78.4001C43.0594 78.4001 43.4016 78.8877 44.0767 79.1323C46.396 79.9728 51.7497 80.2666 54.9292 79.7282C59.0462 79.0307 63.7452 76.9066 66.7583 74.3804C70.2762 71.4309 73.4121 66.3782 74.247 62.3138C74.9622 58.8326 74.7985 55.2986 73.7538 51.6783C72.3648 46.8633 69.5043 42.7726 65.0154 39.1816C64.2842 38.5966 63.6261 38.0553 63.553 37.9784C62.7965 37.1837 57.1544 33.465 56.705 33.465C56.5468 33.465 55.2102 35.3889 53.7345 37.7404Z" fill="#2A5F58"/>
<path d="M14.0978 13.3149C8.74599 16.1551 4.76032 20.2237 2.28038 25.3785C1.76057 26.4591 1.33515 27.4657 1.33515 27.6157C1.33515 27.7659 1.21949 28.0964 1.07777 28.3503C-0.346858 30.9066 -0.362545 39.4961 1.05092 42.904C1.17216 43.1965 1.48857 43.9742 1.75392 44.6323C3.05837 47.8663 6.47025 51.9399 9.40725 53.7703C12.7979 55.8831 15.0579 56.6735 20.515 57.6549C22.2247 57.9623 31.7429 58.447 32.342 58.2572C32.6344 58.1644 32.7504 57.4646 33.2556 52.7419C33.3965 51.4257 33.5818 49.8543 33.6674 49.2499C33.7663 48.5538 33.7121 48.0822 33.5193 47.963C33.3521 47.8596 32.234 47.6658 31.0349 47.532C27.4847 47.1359 21.7886 46.2579 19.5384 45.7596C16.9766 45.1925 14.2411 43.3557 12.7112 41.1757C10.6131 38.1861 10.6782 33.7965 12.8688 30.5647C13.2249 30.0395 14.0725 29.0132 14.7524 28.2844L15.9885 26.9592L15.5751 25.1275C15.3475 24.1203 15.1619 22.3833 15.1624 21.2679C15.1635 19.0583 15.7886 14.6324 16.2674 13.442C16.7583 12.2218 16.2172 12.1902 14.0978 13.3149Z" fill="#1B4F54"/>
<path fill-rule="evenodd" clip-rule="evenodd" d="M20.0981 12.3269C23.0218 6.04338 28.8769 1.73493 36.3181 0.391399C38.8716 -0.0696513 41.8161 -0.127082 44.1431 0.23878C46.0886 0.544551 49.4625 1.50175 49.8464 1.85644C49.9852 1.98513 50.2416 2.09016 50.416 2.09016C51.0499 2.09016 55.1754 4.60014 56.7824 5.96335C58.9156 7.77299 60.3817 9.28855 60.2326 9.52997C60.1677 9.635 59.0337 9.79108 57.7127 9.87669C55.4713 10.0219 53.9576 10.3399 52.8547 10.8972C52.6008 11.0253 52.2222 11.1304 52.0132 11.1304C51.8044 11.1304 50.5479 11.6887 49.2211 12.371C46.9717 13.5276 46.7762 13.5824 46.3309 13.1793C46.0682 12.9416 45.1394 12.4183 44.267 12.0166C42.8352 11.3569 42.3832 11.2846 39.623 11.2745C36.7421 11.2638 36.4741 11.3096 34.9878 12.061C32.0367 13.5534 30.3154 15.769 29.6937 18.8757C29.1851 21.417 29.209 22.8079 29.7998 25.0895C30.3194 27.0953 31.2914 30.3432 31.6302 31.2049C32.3518 33.0414 33.0569 35.2839 33.0809 35.8191C33.1053 36.3658 32.89 36.5104 31.3805 36.963C30.43 37.248 29.4728 37.5517 29.2534 37.6378C27.38 38.373 23.7112 39.5761 23.3374 39.578C23.0816 39.5793 22.8721 39.449 22.8721 39.2882C22.8721 39.1276 22.6804 38.5591 22.4461 38.0252C21.6881 36.2975 20.4344 32.9103 19.8234 30.939C19.5969 30.2078 19.2991 29.2506 19.1619 28.8119C18.398 26.3697 18.0861 24.1347 18.0861 21.1004C18.0861 19.2902 18.1887 17.7457 18.314 17.668C18.4395 17.5906 18.612 16.9347 18.6979 16.2104C18.7838 15.4859 18.9667 14.6749 19.105 14.4077C19.243 14.1407 19.6899 13.2043 20.0981 12.3269ZM44.1431 51.97C44.1431 51.795 44.2867 51.5081 44.4622 51.3326C44.8757 50.9192 44.9187 50.9237 46.1538 51.514C47.9661 52.3797 49.692 53.1407 49.8441 53.1407C49.9246 53.1407 50.897 53.5595 52.0052 54.0713C53.1131 54.5831 54.1905 55.0019 54.3992 55.0019C54.8263 55.0019 54.9406 56.4659 54.5333 56.7174C54.3982 56.8009 54.2105 57.2218 54.1158 57.6528C54.0209 58.0838 53.6529 59.0391 53.2977 59.7757C52.9422 60.5122 52.6516 61.2152 52.6516 61.338C52.6516 61.6959 50.1687 66.4207 49.0647 68.1634C46.3747 72.4101 42.8092 75.7678 38.9275 77.7093C35.4616 79.4431 33.5374 79.817 28.8875 79.6606C25.4951 79.5466 24.2095 79.3285 22.8093 78.6303C22.5554 78.5038 22.1941 78.4001 22.0064 78.4001C21.5942 78.4001 17.0946 76.0879 16.0558 75.3423C14.6846 74.3583 11.6535 71.3663 10.4509 69.81C9.26261 68.2726 7.18815 64.4787 7.18575 63.839C7.18522 63.6542 7.07967 63.2952 6.95151 63.0413C6.44605 62.041 6.0903 60.5252 5.83637 58.2891C5.69013 57.0027 5.50189 55.677 5.41813 55.343C5.24982 54.6719 5.6202 54.5427 6.16873 55.0811C7.2142 56.1077 9.71435 57.7203 11.7048 58.6517C14.8556 60.1264 15.3637 60.3197 16.0888 60.3197C16.4389 60.3197 16.7992 60.4393 16.8896 60.5856C16.98 60.7318 17.3371 60.8514 17.6835 60.8514C18.1895 60.8514 18.4466 61.1437 18.9949 62.3407C19.8165 64.1354 22.3278 66.6574 23.9803 67.3474C27.9609 69.0092 29.4339 69.1764 32.1726 68.2774C34.1745 67.6202 34.828 67.2245 36.5148 65.6497C37.9301 64.3282 39.4433 61.9546 41.1841 58.3255C41.8153 57.0094 42.7393 55.1125 43.2375 54.1104C43.7355 53.1082 44.1431 52.1452 44.1431 51.97Z" fill="#DC7D2C"/>
<path d="M57.8364 13.5558C52.6226 14.0559 48.4309 16.1184 41.8033 21.4442C40.3694 22.5965 38.9033 23.7938 38.5454 24.1044C38.1875 24.4152 37.6555 24.8467 37.363 25.064C36.8501 25.4444 36.903 25.5327 38.8459 27.5341C39.9538 28.6755 41.4994 30.2977 42.2809 31.1384C43.5672 32.5232 44.4816 33.018 44.7193 32.4586C44.8509 32.1483 51.4474 27.8202 53.5077 26.6923C56.3344 25.1448 57.8404 24.6907 60.1435 24.6907C61.2703 24.6907 62.2565 24.7949 62.3352 24.9222C62.4139 25.0496 62.8454 25.2272 63.294 25.3168C63.7428 25.4067 64.6128 25.8281 65.2273 26.2538C68.2876 28.3724 69.9572 30.9627 70.3124 34.143C70.4703 35.5572 70.3791 36.3685 69.7862 38.8253C69.6455 39.4089 69.9112 39.9444 71.3039 41.884C72.2324 43.1776 73.351 44.9532 73.7897 45.8298C74.2284 46.7067 74.657 47.4839 74.7421 47.557C74.875 47.6711 75.6799 49.9386 75.9455 50.9471C75.9936 51.13 76.1457 51.2795 76.2834 51.2795C76.8849 51.2795 80.3039 44.9859 80.3039 43.8787C80.3039 43.5793 80.4034 43.2728 80.5249 43.1975C81.3765 42.6713 81.8081 34.2172 81.1303 31.3379C79.7347 25.4088 76.4778 20.4109 71.9059 17.1828C69.8168 15.7079 66.3397 14.0551 65.3254 14.0551C64.9941 14.0551 64.6091 13.9498 64.4703 13.8214C64.1228 13.5 60.0986 13.3388 57.8364 13.5558Z" fill="#6C8636"/>
</svg>
