<svg width="41" height="40" viewBox="0 0 41 40" fill="none" xmlns="http://www.w3.org/2000/svg">
<path d="M26.8673 18.8702C26.1293 20.046 25.56 21.0637 25.602 21.1316C25.644 21.1997 26.279 21.7378 27.013 22.3277C28.6056 23.6075 30.2681 25.2366 30.7319 25.9721C32.02 28.0142 31.6891 30.8926 29.9881 32.4418C29.2898 33.0778 27.3379 33.8823 26.4928 33.8823C26.3118 33.8823 25.9526 34.3153 25.2823 35.3412C24.6537 36.3034 23.914 37.2087 23.1097 38.0001C22.4389 38.66 21.8412 39.2 21.7815 39.2C21.5297 39.2 21.7008 39.4439 22.0383 39.5662C23.198 39.9864 25.8748 40.1333 27.4646 39.8641C29.5231 39.5154 31.8726 38.4533 33.3791 37.1902C35.1381 35.7154 36.7061 33.1891 37.1235 31.1569C37.4811 29.4163 37.3992 27.6493 36.8769 25.8391C36.1824 23.4317 34.7522 21.3863 32.5077 19.5908C32.1421 19.2983 31.813 19.0276 31.7765 18.9892C31.3983 18.5918 28.5772 16.7325 28.3525 16.7325C28.2734 16.7325 27.6051 17.6945 26.8673 18.8702Z" fill="#2A5F58"/>
<path d="M7.04889 6.65745C4.37299 8.07756 2.38016 10.1119 1.14019 12.6893C0.880285 13.2295 0.667576 13.7329 0.667576 13.8078C0.667576 13.883 0.609745 14.0482 0.538885 14.1752C-0.173429 15.4533 -0.181272 19.7481 0.525458 21.452C0.586081 21.5982 0.744284 21.9871 0.876962 22.3161C1.52919 23.9331 3.23512 25.97 4.70362 26.8852C6.39893 27.9415 7.52895 28.3368 10.2575 28.8275C11.1123 28.9811 15.8715 29.2235 16.171 29.1286C16.3172 29.0822 16.3752 28.7323 16.6278 26.3709C16.6982 25.7129 16.7909 24.9272 16.8337 24.625C16.8832 24.2769 16.856 24.0411 16.7597 23.9815C16.676 23.9298 16.117 23.8329 15.5174 23.766C13.7424 23.5679 10.8943 23.129 9.76919 22.8798C8.48828 22.5962 7.12055 21.6779 6.35559 20.5879C5.30653 19.093 5.3391 16.8983 6.43442 15.2823C6.61244 15.0198 7.03626 14.5066 7.3762 14.1422L7.99426 13.4796L7.78753 12.5638C7.67373 12.0602 7.58093 11.1916 7.5812 10.6339C7.58173 9.52917 7.89428 7.31618 8.13372 6.72099C8.37913 6.11091 8.10859 6.09509 7.04889 6.65745Z" fill="#1B4F54"/>
<path fill-rule="evenodd" clip-rule="evenodd" d="M10.049 6.16343C11.5109 3.02169 14.4385 0.867466 18.159 0.195699C19.4358 -0.0348256 20.908 -0.0635412 22.0716 0.11939C23.0443 0.272276 24.7313 0.750874 24.9232 0.928222C24.9926 0.992566 25.1208 1.04508 25.208 1.04508C25.5249 1.04508 27.5877 2.30007 28.3912 2.98168C29.4578 3.88649 30.1909 4.64427 30.1163 4.76499C30.0838 4.8175 29.5168 4.89554 28.8564 4.93835C27.7357 5.01093 26.9788 5.16994 26.4274 5.44859C26.3004 5.51266 26.1111 5.56518 26.0066 5.56518C25.9022 5.56518 25.2739 5.84436 24.6105 6.18549C23.4858 6.7638 23.3881 6.79119 23.1654 6.58964C23.0341 6.47079 22.5697 6.20916 22.1335 6.00828C21.4176 5.67844 21.1916 5.64229 19.8115 5.63723C18.3711 5.63192 18.2371 5.65478 17.4939 6.03048C16.0184 6.7767 15.1577 7.88452 14.8469 9.43784C14.5925 10.7085 14.6045 11.4039 14.8999 12.5447C15.1597 13.5477 15.6457 15.1716 15.8151 15.6025C16.1759 16.5207 16.5285 17.642 16.5404 17.9096C16.5527 18.1829 16.445 18.2552 15.6903 18.4815C15.215 18.624 14.7364 18.7758 14.6267 18.8189C13.69 19.1865 11.8556 19.7881 11.6687 19.789C11.5408 19.7897 11.436 19.7245 11.436 19.6441C11.436 19.5638 11.3402 19.2796 11.2231 19.0126C10.844 18.1487 10.2172 16.4552 9.91171 15.4695C9.79844 15.1039 9.64954 14.6253 9.58094 14.406C9.19899 13.1849 9.04305 12.0673 9.04305 10.5502C9.04305 9.6451 9.09437 8.87283 9.15699 8.83401C9.21973 8.79532 9.30602 8.46735 9.34896 8.10521C9.3919 7.74293 9.48336 7.33746 9.55249 7.20385C9.62149 7.07037 9.84497 6.60214 10.049 6.16343ZM22.0716 25.985C22.0716 25.8975 22.1434 25.7541 22.2311 25.6663C22.4378 25.4596 22.4594 25.4619 23.0769 25.757C23.983 26.1899 24.846 26.5703 24.922 26.5703C24.9623 26.5703 25.4485 26.7797 26.0026 27.0356C26.5566 27.2916 27.0953 27.5009 27.1996 27.5009C27.4131 27.5009 27.4703 28.2329 27.2666 28.3587C27.1991 28.4004 27.1052 28.6109 27.0579 28.8264C27.0104 29.0419 26.8264 29.5196 26.6488 29.8878C26.4711 30.2561 26.3258 30.6076 26.3258 30.669C26.3258 30.8479 25.0844 33.2104 24.5324 34.0817C23.1874 36.2051 21.4046 37.8839 19.4637 38.8546C17.7308 39.7216 16.7687 39.9085 14.4438 39.8303C12.7475 39.7733 12.1048 39.6643 11.4047 39.3152C11.2777 39.2519 11.097 39.2 11.0032 39.2C10.7971 39.2 8.54731 38.0439 8.02789 37.6712C7.3423 37.1791 5.82674 35.6831 5.22543 34.905C4.6313 34.1363 3.59407 32.2393 3.59288 31.9195C3.59261 31.8271 3.53983 31.6476 3.47575 31.5206C3.22303 31.0205 3.04515 30.2626 2.91819 29.1445C2.84507 28.5014 2.75094 27.8385 2.70907 27.6715C2.62491 27.336 2.8101 27.2714 3.08437 27.5406C3.6071 28.0539 4.85718 28.8602 5.85239 29.3259C7.42778 30.0632 7.68184 30.1598 8.04438 30.1598C8.21947 30.1598 8.3996 30.2197 8.4448 30.2928C8.49001 30.3659 8.66855 30.4257 8.84177 30.4257C9.09477 30.4257 9.22332 30.5718 9.49746 31.1703C9.90825 32.0677 11.1639 33.3287 11.9902 33.6737C13.9805 34.5046 14.717 34.5882 16.0863 34.1387C17.0872 33.8101 17.414 33.6123 18.2574 32.8248C18.9651 32.1641 19.7217 30.9773 20.592 29.1628C20.9076 28.5047 21.3696 27.5563 21.6188 27.0552C21.8678 26.5541 22.0716 26.0726 22.0716 25.985Z" fill="#DC7D2C"/>
<path d="M28.9182 6.77789C26.3113 7.02796 24.2154 8.05921 20.9017 10.7221C20.1847 11.2983 19.4516 11.8969 19.2727 12.0522C19.0938 12.2076 18.8277 12.4234 18.6815 12.532C18.425 12.7222 18.4515 12.7664 19.4229 13.767C19.9769 14.3378 20.7497 15.1489 21.1404 15.5692C21.7836 16.2616 22.2408 16.509 22.3597 16.2293C22.4255 16.0741 25.7237 13.9101 26.7539 13.3461C28.1672 12.5724 28.9202 12.3453 30.0717 12.3453C30.6352 12.3453 31.1283 12.3974 31.1676 12.4611C31.207 12.5248 31.4227 12.6136 31.647 12.6584C31.8714 12.7033 32.3064 12.9141 32.6136 13.1269C34.1438 14.1862 34.9786 15.4813 35.1562 17.0715C35.2352 17.7786 35.1896 18.1842 34.8931 19.4126C34.8228 19.7044 34.9556 19.9722 35.6519 20.942C36.1162 21.5888 36.6755 22.4766 36.8948 22.9149C37.1142 23.3534 37.3285 23.742 37.371 23.7785C37.4375 23.8355 37.8399 24.9693 37.9727 25.4736C37.9968 25.565 38.0729 25.6397 38.1417 25.6397C38.4424 25.6397 40.152 22.4929 40.152 21.9394C40.152 21.7897 40.2017 21.6364 40.2624 21.5988C40.6883 21.3357 40.904 17.1086 40.5652 15.6689C39.8673 12.7044 38.2389 10.2055 35.9529 8.59138C34.9084 7.85394 33.1699 7.02756 32.6627 7.02756C32.497 7.02756 32.3045 6.97492 32.2351 6.91071C32.0614 6.74998 30.0493 6.66941 28.9182 6.77789Z" fill="#6C8636"/>
</svg>
