<svg width="144" height="40" viewBox="0 0 144 40" fill="none" xmlns="http://www.w3.org/2000/svg">
<path d="M27.5347 18.8702C26.7968 20.046 26.2275 21.0637 26.2695 21.1316C26.3115 21.1997 26.9465 21.7378 27.6805 22.3277C29.2731 23.6075 30.9356 25.2366 31.3994 25.9721C32.6875 28.0142 32.3566 30.8926 30.6556 32.4418C29.9573 33.0778 28.0054 33.8823 27.1602 33.8823C26.9793 33.8823 26.6201 34.3153 25.9498 35.3412C25.3212 36.3034 24.5815 37.2087 23.7772 38.0001C23.1064 38.66 22.5087 39.2 22.449 39.2C22.1972 39.2 22.3683 39.4439 22.7058 39.5662C23.8655 39.9864 26.5423 40.1333 28.1321 39.8641C30.1906 39.5154 32.5401 38.4533 34.0466 37.1902C35.8056 35.7154 37.3735 33.1891 37.791 31.1569C38.1486 29.4163 38.0667 27.6493 37.5444 25.8391C36.8499 23.4317 35.4197 21.3863 33.1752 19.5908C32.8096 19.2983 32.4805 19.0276 32.444 18.9892C32.0657 18.5918 29.2447 16.7325 29.02 16.7325C28.9409 16.7325 28.2726 17.6945 27.5347 18.8702Z" fill="#2A5F58"/>
<path d="M7.71637 6.65745C5.04047 8.07756 3.04764 10.1119 1.80767 12.6893C1.54777 13.2295 1.33506 13.7329 1.33506 13.8078C1.33506 13.883 1.27723 14.0482 1.20637 14.1752C0.494051 15.4533 0.486208 19.7481 1.19294 21.452C1.25356 21.5982 1.41176 21.9871 1.54444 22.3161C2.19667 23.9331 3.9026 25.97 5.3711 26.8852C7.06641 27.9415 8.19643 28.3368 10.925 28.8275C11.7798 28.9811 16.5389 29.2235 16.8385 29.1286C16.9847 29.0822 17.0427 28.7323 17.2953 26.3709C17.3657 25.7129 17.4584 24.9272 17.5012 24.625C17.5506 24.2769 17.5235 24.0411 17.4271 23.9815C17.3435 23.9298 16.7845 23.8329 16.1849 23.766C14.4098 23.5679 11.5618 23.129 10.4367 22.8798C9.15576 22.5962 7.78803 21.6779 7.02307 20.5879C5.97401 19.093 6.00658 16.8983 7.1019 15.2823C7.27992 15.0198 7.70374 14.5066 8.04368 14.1422L8.66174 13.4796L8.45501 12.5638C8.34121 12.0602 8.24841 11.1916 8.24868 10.6339C8.24921 9.52917 8.56176 7.31618 8.8012 6.72099C9.04661 6.11091 8.77607 6.09509 7.71637 6.65745Z" fill="#1B4F54"/>
<path fill-rule="evenodd" clip-rule="evenodd" d="M10.7165 6.16343C12.1784 3.02169 15.1059 0.867466 18.8265 0.195699C20.1033 -0.0348256 21.5755 -0.0635412 22.7391 0.11939C23.7118 0.272276 25.3987 0.750874 25.5907 0.928222C25.6601 0.992566 25.7883 1.04508 25.8755 1.04508C26.1924 1.04508 28.2552 2.30007 29.0587 2.98168C30.1253 3.88649 30.8583 4.64427 30.7838 4.76499C30.7513 4.8175 30.1843 4.89554 29.5239 4.93835C28.4031 5.01093 27.6463 5.16994 27.0948 5.44859C26.9679 5.51266 26.7786 5.56518 26.6741 5.56518C26.5697 5.56518 25.9414 5.84436 25.278 6.18549C24.1533 6.7638 24.0556 6.79119 23.8329 6.58964C23.7016 6.47079 23.2372 6.20916 22.801 6.00828C22.0851 5.67844 21.8591 5.64229 20.479 5.63723C19.0386 5.63192 18.9045 5.65478 18.1614 6.03048C16.6858 6.7767 15.8252 7.88452 15.5143 9.43784C15.26 10.7085 15.272 11.4039 15.5674 12.5447C15.8272 13.5477 16.3132 15.1716 16.4826 15.6025C16.8434 16.5207 17.1959 17.642 17.2079 17.9096C17.2201 18.1829 17.1125 18.2552 16.3577 18.4815C15.8825 18.624 15.4039 18.7758 15.2942 18.8189C14.3575 19.1865 12.5231 19.7881 12.3362 19.789C12.2083 19.7897 12.1035 19.7245 12.1035 19.6441C12.1035 19.5638 12.0077 19.2796 11.8906 19.0126C11.5115 18.1487 10.8847 16.4552 10.5792 15.4695C10.4659 15.1039 10.317 14.6253 10.2484 14.406C9.86648 13.1849 9.71053 12.0673 9.71053 10.5502C9.71053 9.6451 9.76185 8.87283 9.82447 8.83401C9.88721 8.79532 9.9735 8.46735 10.0164 8.10521C10.0594 7.74293 10.1508 7.33746 10.22 7.20385C10.289 7.07037 10.5125 6.60214 10.7165 6.16343ZM22.7391 25.985C22.7391 25.8975 22.8108 25.7541 22.8986 25.6663C23.1053 25.4596 23.1269 25.4619 23.7444 25.757C24.6505 26.1899 25.5135 26.5703 25.5895 26.5703C25.6298 26.5703 26.116 26.7797 26.6701 27.0356C27.2241 27.2916 27.7627 27.5009 27.8671 27.5009C28.0806 27.5009 28.1378 28.2329 27.9341 28.3587C27.8666 28.4004 27.7727 28.6109 27.7254 28.8264C27.6779 29.0419 27.4939 29.5196 27.3163 29.8878C27.1386 30.2561 26.9933 30.6076 26.9933 30.669C26.9933 30.8479 25.7518 33.2104 25.1998 34.0817C23.8549 36.2051 22.0721 37.8839 20.1312 38.8546C18.3983 39.7216 17.4362 39.9085 15.1113 39.8303C13.415 39.7733 12.7722 39.6643 12.0722 39.3152C11.9452 39.2519 11.7645 39.2 11.6707 39.2C11.4646 39.2 9.21479 38.0439 8.69537 37.6712C8.00978 37.1791 6.49422 35.6831 5.89291 34.905C5.29878 34.1363 4.26155 32.2393 4.26036 31.9195C4.26009 31.8271 4.20731 31.6476 4.14323 31.5206C3.89051 31.0205 3.71263 30.2626 3.58567 29.1445C3.51255 28.5014 3.41842 27.8385 3.37655 27.6715C3.29239 27.336 3.47758 27.2714 3.75185 27.5406C4.27458 28.0539 5.52466 28.8602 6.51988 29.3259C8.09526 30.0632 8.34932 30.1598 8.71186 30.1598C8.88695 30.1598 9.06708 30.2197 9.11228 30.2928C9.15749 30.3659 9.33603 30.4257 9.50925 30.4257C9.76225 30.4257 9.89081 30.5718 10.1649 31.1703C10.5757 32.0677 11.8314 33.3287 12.6576 33.6737C14.6479 34.5046 15.3845 34.5882 16.7538 34.1387C17.7547 33.8101 18.0815 33.6123 18.9249 32.8248C19.6325 32.1641 20.3891 30.9773 21.2595 29.1628C21.5751 28.5047 22.0371 27.5563 22.2862 27.0552C22.5352 26.5541 22.7391 26.0726 22.7391 25.985Z" fill="#DC7D2C"/>
<path d="M29.5857 6.77789C26.9788 7.02796 24.8829 8.05921 21.5691 10.7221C20.8522 11.2983 20.1191 11.8969 19.9402 12.0522C19.7612 12.2076 19.4952 12.4234 19.349 12.532C19.0925 12.7222 19.119 12.7664 20.0904 13.767C20.6444 14.3378 21.4172 15.1489 21.8079 15.5692C22.4511 16.2616 22.9083 16.509 23.0271 16.2293C23.0929 16.0741 26.3912 13.9101 27.4213 13.3461C28.8347 12.5724 29.5877 12.3453 30.7392 12.3453C31.3026 12.3453 31.7957 12.3974 31.8351 12.4611C31.8744 12.5248 32.0902 12.6136 32.3145 12.6584C32.5389 12.7033 32.9739 12.9141 33.2811 13.1269C34.8113 14.1862 35.6461 15.4813 35.8237 17.0715C35.9026 17.7786 35.857 18.1842 35.5606 19.4126C35.4902 19.7044 35.6231 19.9722 36.3194 20.942C36.7837 21.5888 37.343 22.4766 37.5623 22.9149C37.7817 23.3534 37.996 23.742 38.0385 23.7785C38.105 23.8355 38.5074 24.9693 38.6402 25.4736C38.6643 25.565 38.7403 25.6397 38.8092 25.6397C39.1099 25.6397 40.8194 22.4929 40.8194 21.9394C40.8194 21.7897 40.8692 21.6364 40.9299 21.5988C41.3557 21.3357 41.5715 17.1086 41.2326 15.6689C40.5348 12.7044 38.9064 10.2055 36.6204 8.59138C35.5759 7.85394 33.8374 7.02756 33.3302 7.02756C33.1645 7.02756 32.972 6.97492 32.9026 6.91071C32.7289 6.74998 30.7168 6.66941 29.5857 6.77789Z" fill="#6C8636"/>
<path d="M60.8565 8.55945C60.8102 8.09278 60.6116 7.73024 60.2606 7.47183C59.9097 7.21343 59.4333 7.08423 58.8317 7.08423C58.4229 7.08423 58.0777 7.14208 57.7961 7.25778C57.5146 7.36963 57.2986 7.52583 57.1482 7.72638C57.0016 7.92693 56.9284 8.15448 56.9284 8.40903C56.9207 8.62115 56.965 8.80628 57.0614 8.96441C57.1617 9.12254 57.2986 9.25945 57.4722 9.37515C57.6457 9.487 57.8463 9.58535 58.0738 9.6702C58.3014 9.75119 58.5444 9.82061 58.8028 9.87846L59.8672 10.133C60.384 10.2487 60.8584 10.403 61.2904 10.5958C61.7223 10.7887 62.0964 11.0259 62.4127 11.3074C62.729 11.5889 62.9739 11.9206 63.1474 12.3024C63.3248 12.6843 63.4155 13.122 63.4193 13.6157C63.4155 14.3408 63.2303 14.9694 62.8639 15.5016C62.5014 16.03 61.9769 16.4408 61.2904 16.7339C60.6077 17.0231 59.7843 17.1678 58.8201 17.1678C57.8636 17.1678 57.0306 17.0212 56.3209 16.7281C55.6151 16.435 55.0636 16.0011 54.6664 15.4264C54.273 14.8479 54.0666 14.1325 54.0474 13.2801H56.4713C56.4983 13.6774 56.6121 14.0091 56.8127 14.2752C57.0171 14.5374 57.289 14.7361 57.6284 14.8711C57.9716 15.0022 58.3592 15.0678 58.7912 15.0678C59.2154 15.0678 59.5838 15.006 59.8962 14.8826C60.2124 14.7592 60.4573 14.5876 60.6309 14.3678C60.8044 14.1479 60.8912 13.8953 60.8912 13.6099C60.8912 13.3438 60.8121 13.1201 60.654 12.9388C60.4997 12.7575 60.2722 12.6033 59.9714 12.476C59.6744 12.3487 59.3099 12.233 58.878 12.1289L57.5879 11.8049C56.589 11.5619 55.8003 11.1821 55.2217 10.6652C54.6432 10.1484 54.3559 9.45229 54.3598 8.5768C54.3559 7.85944 54.5468 7.23271 54.9325 6.69662C55.322 6.16053 55.8562 5.74207 56.535 5.44124C57.2138 5.14041 57.9851 4.99 58.849 4.99C59.7284 4.99 60.4959 5.14041 61.1515 5.44124C61.811 5.74207 62.324 6.16053 62.6904 6.69662C63.0568 7.23271 63.2458 7.85366 63.2573 8.55945H60.8565ZM69.1076 17.1736C68.1935 17.1736 67.4067 16.9884 66.7472 16.6182C66.0916 16.2441 65.5863 15.7157 65.2315 15.033C64.8767 14.3465 64.6993 13.5347 64.6993 12.5975C64.6993 11.6834 64.8767 10.8812 65.2315 10.1909C65.5863 9.5005 66.0858 8.96248 66.7299 8.5768C67.3778 8.19112 68.1376 7.99829 69.0092 7.99829C69.5955 7.99829 70.1412 8.09278 70.6464 8.28176C71.1555 8.46688 71.5991 8.7465 71.977 9.12061C72.3588 9.49471 72.6558 9.96524 72.8679 10.5322C73.0801 11.0953 73.1861 11.7548 73.1861 12.5107V13.1876H65.6828V11.6603H70.8663C70.8663 11.3055 70.7891 10.9911 70.6349 10.7173C70.4806 10.4435 70.2665 10.2294 69.9927 10.0752C69.7227 9.91703 69.4084 9.83797 69.0497 9.83797C68.6756 9.83797 68.3439 9.92474 68.0547 10.0983C67.7693 10.268 67.5456 10.4975 67.3836 10.7867C67.2216 11.0721 67.1387 11.3903 67.1348 11.7413V13.1934C67.1348 13.633 67.2158 14.0129 67.3778 14.333C67.5437 14.6532 67.777 14.9 68.0778 15.0735C68.3786 15.2471 68.7354 15.3339 69.1481 15.3339C69.4219 15.3339 69.6726 15.2953 69.9001 15.2182C70.1277 15.141 70.3225 15.0253 70.4844 14.8711C70.6464 14.7168 70.7699 14.5278 70.8547 14.3041L73.1341 14.4545C73.0184 15.0022 72.7812 15.4804 72.4225 15.8892C72.0677 16.2942 71.6087 16.6105 71.0456 16.838C70.4864 17.0617 69.8404 17.1736 69.1076 17.1736ZM82.1878 10.6479L79.9316 10.7867C79.8931 10.5939 79.8101 10.4203 79.6829 10.2661C79.5556 10.1079 79.3878 9.9826 79.1796 9.89003C78.9751 9.79361 78.7302 9.7454 78.4448 9.7454C78.063 9.7454 77.741 9.8264 77.4787 9.98838C77.2165 10.1465 77.0853 10.3586 77.0853 10.6247C77.0853 10.8369 77.1702 11.0162 77.3399 11.1628C77.5096 11.3093 77.8008 11.427 78.2134 11.5157L79.8217 11.8396C80.6856 12.017 81.3297 12.3024 81.7539 12.6958C82.1782 13.0892 82.3903 13.606 82.3903 14.2463C82.3903 14.8286 82.2187 15.3397 81.8754 15.7793C81.536 16.219 81.0694 16.5623 80.4754 16.8091C79.8853 17.0521 79.2046 17.1736 78.4333 17.1736C77.2569 17.1736 76.3198 16.9286 75.6217 16.4388C74.9275 15.9452 74.5206 15.2741 74.401 14.4256L76.825 14.2983C76.8983 14.657 77.0757 14.9308 77.3572 15.1198C77.6388 15.3049 77.9994 15.3975 78.439 15.3975C78.871 15.3975 79.2181 15.3146 79.4804 15.1487C79.7465 14.979 79.8815 14.7611 79.8853 14.495C79.8815 14.2713 79.787 14.0881 79.6019 13.9454C79.4167 13.7989 79.1313 13.687 78.7457 13.6099L77.2068 13.3033C76.339 13.1297 75.693 12.8289 75.2688 12.4008C74.8484 11.9727 74.6382 11.427 74.6382 10.7636C74.6382 10.1928 74.7925 9.70105 75.101 9.28838C75.4134 8.8757 75.8512 8.55752 76.4142 8.33382C76.9812 8.11013 77.6446 7.99829 78.4043 7.99829C79.5267 7.99829 80.4099 8.23548 81.0539 8.70986C81.7019 9.18424 82.0798 9.83025 82.1878 10.6479ZM86.4761 17.1678C85.9091 17.1678 85.4039 17.0694 84.9604 16.8727C84.5168 16.6722 84.1659 16.3771 83.9075 15.9876C83.6529 15.5942 83.5257 15.1044 83.5257 14.5182C83.5257 14.0245 83.6163 13.6099 83.7976 13.2744C83.9788 12.9388 84.2257 12.6688 84.5381 12.4644C84.8505 12.26 85.2053 12.1058 85.6025 12.0016C86.0036 11.8975 86.424 11.8242 86.8637 11.7818C87.3805 11.7278 87.797 11.6776 88.1133 11.6314C88.4295 11.5812 88.659 11.508 88.8017 11.4115C88.9444 11.3151 89.0158 11.1724 89.0158 10.9834V10.9487C89.0158 10.5823 88.9001 10.2989 88.6687 10.0983C88.4411 9.89775 88.1171 9.79747 87.6968 9.79747C87.2532 9.79747 86.9003 9.89582 86.6381 10.0925C86.3758 10.2854 86.2023 10.5283 86.1174 10.8214L83.8381 10.6363C83.9538 10.0964 84.1813 9.6297 84.5207 9.23631C84.8601 8.83906 85.2978 8.53438 85.8339 8.32225C86.3739 8.10627 86.9987 7.99829 87.7083 7.99829C88.202 7.99829 88.6745 8.05614 89.1257 8.17184C89.5808 8.28754 89.9838 8.46688 90.3348 8.70986C90.6896 8.95284 90.9692 9.26524 91.1736 9.64706C91.3781 10.025 91.4803 10.4782 91.4803 11.0066V17H89.1431V15.7678H89.0736C88.9309 16.0454 88.74 16.2904 88.5009 16.5025C88.2618 16.7107 87.9744 16.8747 87.6389 16.9942C87.3034 17.1099 86.9158 17.1678 86.4761 17.1678ZM87.1819 15.4669C87.5444 15.4669 87.8645 15.3956 88.1422 15.2529C88.4199 15.1063 88.6378 14.9096 88.7959 14.6628C88.9541 14.416 89.0331 14.1363 89.0331 13.8239V12.881C88.956 12.9311 88.8499 12.9774 88.7149 13.0198C88.5838 13.0584 88.4353 13.095 88.2695 13.1297C88.1036 13.1606 87.9378 13.1895 87.772 13.2165C87.6061 13.2396 87.4557 13.2609 87.3207 13.2801C87.0315 13.3226 86.7788 13.3901 86.5629 13.4826C86.3469 13.5752 86.1791 13.7005 86.0596 13.8587C85.94 14.0129 85.8802 14.2058 85.8802 14.4372C85.8802 14.7727 86.0017 15.0292 86.2447 15.2066C86.4915 15.3802 86.8039 15.4669 87.1819 15.4669Z" fill="#4B4B4B"/>
<path d="M54.4292 35V23.152H62.2739V25.2173H56.9341V28.0404H61.7532V30.1058H56.9341V35H54.4292ZM67.2751 35.1736C66.3765 35.1736 65.5994 34.9826 64.9437 34.6008C64.2919 34.2151 63.7886 33.6791 63.4338 32.9925C63.079 32.3022 62.9015 31.5019 62.9015 30.5917C62.9015 29.6738 63.079 28.8716 63.4338 28.1851C63.7886 27.4947 64.2919 26.9586 64.9437 26.5768C65.5994 26.1911 66.3765 25.9983 67.2751 25.9983C68.1738 25.9983 68.949 26.1911 69.6008 26.5768C70.2564 26.9586 70.7617 27.4947 71.1165 28.1851C71.4713 28.8716 71.6487 29.6738 71.6487 30.5917C71.6487 31.5019 71.4713 32.3022 71.1165 32.9925C70.7617 33.6791 70.2564 34.2151 69.6008 34.6008C68.949 34.9826 68.1738 35.1736 67.2751 35.1736ZM67.2867 33.2645C67.6955 33.2645 68.0368 33.1487 68.3107 32.9173C68.5845 32.6821 68.7908 32.362 68.9297 31.957C69.0724 31.552 69.1437 31.0912 69.1437 30.5743C69.1437 30.0575 69.0724 29.5967 68.9297 29.1917C68.7908 28.7867 68.5845 28.4666 68.3107 28.2314C68.0368 27.9961 67.6955 27.8785 67.2867 27.8785C66.874 27.8785 66.5269 27.9961 66.2454 28.2314C65.9677 28.4666 65.7575 28.7867 65.6148 29.1917C65.4759 29.5967 65.4065 30.0575 65.4065 30.5743C65.4065 31.0912 65.4759 31.552 65.6148 31.957C65.7575 32.362 65.9677 32.6821 66.2454 32.9173C66.5269 33.1487 66.874 33.2645 67.2867 33.2645ZM78.9496 31.2165V26.114H81.4141V35H79.0479V33.3859H78.9554C78.7548 33.9066 78.4212 34.3251 77.9545 34.6413C77.4917 34.9576 76.9267 35.1157 76.2595 35.1157C75.6655 35.1157 75.143 34.9807 74.6917 34.7107C74.2405 34.4408 73.8876 34.057 73.633 33.5595C73.3823 33.062 73.2551 32.4661 73.2512 31.7719V26.114H75.7157V31.3322C75.7195 31.8567 75.8603 32.2713 76.138 32.576C76.4157 32.8807 76.7879 33.033 77.2545 33.033C77.5515 33.033 77.8292 32.9656 78.0876 32.8306C78.346 32.6917 78.5543 32.4873 78.7124 32.2173C78.8744 31.9474 78.9534 31.6138 78.9496 31.2165ZM85.8498 29.8628V35H83.3854V26.114H85.7341V27.6818H85.8383C86.035 27.165 86.3647 26.7561 86.8275 26.4553C87.2903 26.1506 87.8515 25.9983 88.511 25.9983C89.1281 25.9983 89.6661 26.1333 90.1251 26.4032C90.584 26.6732 90.9408 27.0589 91.1953 27.5603C91.4499 28.0578 91.5772 28.6517 91.5772 29.3421V35H89.1127V29.7818C89.1165 29.238 88.9777 28.8137 88.6961 28.509C88.4146 28.2005 88.027 28.0462 87.5333 28.0462C87.2016 28.0462 86.9085 28.1176 86.654 28.2603C86.4033 28.403 86.2066 28.6113 86.0639 28.8851C85.9251 29.1551 85.8537 29.481 85.8498 29.8628ZM96.7939 35.1446C96.119 35.1446 95.5077 34.9711 94.96 34.624C94.4162 34.273 93.9843 33.7581 93.6642 33.0793C93.3479 32.3967 93.1898 31.5598 93.1898 30.5686C93.1898 29.5504 93.3537 28.7038 93.6815 28.0289C94.0093 27.3501 94.4452 26.8429 94.989 26.5074C95.5366 26.168 96.1363 25.9983 96.7881 25.9983C97.2857 25.9983 97.7003 26.0831 98.032 26.2528C98.3675 26.4187 98.6375 26.6269 98.8419 26.8776C99.0501 27.1245 99.2083 27.3674 99.3163 27.6066H99.3915V23.152H101.85V35H99.4204V33.5768H99.3163C99.2006 33.8237 99.0366 34.0686 98.8245 34.3116C98.6163 34.5507 98.3444 34.7493 98.0088 34.9074C97.6771 35.0656 97.2722 35.1446 96.7939 35.1446ZM97.5749 33.1835C97.9722 33.1835 98.3077 33.0755 98.5815 32.8595C98.8592 32.6397 99.0714 32.333 99.2179 31.9396C99.3683 31.5463 99.4435 31.0854 99.4435 30.557C99.4435 30.0286 99.3703 29.5697 99.2237 29.1801C99.0771 28.7906 98.865 28.4898 98.5873 28.2776C98.3096 28.0655 97.9722 27.9595 97.5749 27.9595C97.17 27.9595 96.8286 28.0694 96.551 28.2892C96.2733 28.509 96.0631 28.8137 95.9204 29.2033C95.7777 29.5928 95.7063 30.044 95.7063 30.557C95.7063 31.0738 95.7777 31.5308 95.9204 31.9281C96.0669 32.3215 96.2771 32.63 96.551 32.8537C96.8286 33.0735 97.17 33.1835 97.5749 33.1835ZM106.41 35.1678C105.843 35.1678 105.338 35.0694 104.895 34.8727C104.451 34.6722 104.1 34.3771 103.842 33.9876C103.587 33.5942 103.46 33.1044 103.46 32.5182C103.46 32.0245 103.551 31.6099 103.732 31.2744C103.913 30.9388 104.16 30.6688 104.472 30.4644C104.785 30.26 105.14 30.1058 105.537 30.0016C105.938 29.8975 106.358 29.8242 106.798 29.7818C107.315 29.7278 107.731 29.6776 108.048 29.6314C108.364 29.5812 108.593 29.508 108.736 29.4115C108.879 29.3151 108.95 29.1724 108.95 28.9834V28.9487C108.95 28.5823 108.834 28.2989 108.603 28.0983C108.375 27.8977 108.051 27.7975 107.631 27.7975C107.187 27.7975 106.835 27.8958 106.572 28.0925C106.31 28.2854 106.136 28.5283 106.052 28.8214L103.772 28.6363C103.888 28.0964 104.116 27.6297 104.455 27.2363C104.794 26.8391 105.232 26.5344 105.768 26.3223C106.308 26.1063 106.933 25.9983 107.643 25.9983C108.136 25.9983 108.609 26.0561 109.06 26.1718C109.515 26.2875 109.918 26.4669 110.269 26.7099C110.624 26.9528 110.903 27.2652 111.108 27.6471C111.312 28.025 111.414 28.4782 111.414 29.0066V35H109.077V33.7678H109.008C108.865 34.0454 108.674 34.2904 108.435 34.5025C108.196 34.7107 107.909 34.8747 107.573 34.9942C107.238 35.1099 106.85 35.1678 106.41 35.1678ZM107.116 33.4669C107.479 33.4669 107.799 33.3956 108.076 33.2529C108.354 33.1063 108.572 32.9096 108.73 32.6628C108.888 32.416 108.967 32.1363 108.967 31.8239V30.881C108.89 30.9311 108.784 30.9774 108.649 31.0198C108.518 31.0584 108.37 31.095 108.204 31.1297C108.038 31.1606 107.872 31.1895 107.706 31.2165C107.54 31.2396 107.39 31.2609 107.255 31.2801C106.966 31.3226 106.713 31.3901 106.497 31.4826C106.281 31.5752 106.113 31.7005 105.994 31.8587C105.874 32.0129 105.814 32.2058 105.814 32.4372C105.814 32.7727 105.936 33.0292 106.179 33.2066C106.426 33.3802 106.738 33.4669 107.116 33.4669ZM118.053 26.114V27.9652H112.702V26.114H118.053ZM113.917 23.985H116.381V32.2694C116.381 32.497 116.416 32.6744 116.485 32.8016C116.555 32.9251 116.651 33.0118 116.774 33.062C116.902 33.1121 117.048 33.1372 117.214 33.1372C117.33 33.1372 117.446 33.1275 117.561 33.1083C117.677 33.0851 117.766 33.0678 117.827 33.0562L118.215 34.8901C118.092 34.9286 117.918 34.973 117.694 35.0231C117.471 35.0771 117.199 35.1099 116.879 35.1215C116.285 35.1446 115.764 35.0656 115.317 34.8843C114.873 34.703 114.528 34.4215 114.281 34.0397C114.034 33.6578 113.913 33.1757 113.917 32.5934V23.985ZM119.658 35V26.114H122.123V35H119.658ZM120.896 24.9685C120.53 24.9685 120.216 24.847 119.953 24.6041C119.695 24.3572 119.566 24.0622 119.566 23.7189C119.566 23.3795 119.695 23.0883 119.953 22.8454C120.216 22.5985 120.53 22.4751 120.896 22.4751C121.263 22.4751 121.575 22.5985 121.834 22.8454C122.096 23.0883 122.227 23.3795 122.227 23.7189C122.227 24.0622 122.096 24.3572 121.834 24.6041C121.575 24.847 121.263 24.9685 120.896 24.9685ZM128.112 35.1736C127.213 35.1736 126.436 34.9826 125.78 34.6008C125.129 34.2151 124.625 33.6791 124.271 32.9925C123.916 32.3022 123.738 31.5019 123.738 30.5917C123.738 29.6738 123.916 28.8716 124.271 28.1851C124.625 27.4947 125.129 26.9586 125.78 26.5768C126.436 26.1911 127.213 25.9983 128.112 25.9983C129.011 25.9983 129.786 26.1911 130.438 26.5768C131.093 26.9586 131.598 27.4947 131.953 28.1851C132.308 28.8716 132.485 29.6738 132.485 30.5917C132.485 31.5019 132.308 32.3022 131.953 32.9925C131.598 33.6791 131.093 34.2151 130.438 34.6008C129.786 34.9826 129.011 35.1736 128.112 35.1736ZM128.123 33.2645C128.532 33.2645 128.874 33.1487 129.147 32.9173C129.421 32.6821 129.628 32.362 129.766 31.957C129.909 31.552 129.981 31.0912 129.981 30.5743C129.981 30.0575 129.909 29.5967 129.766 29.1917C129.628 28.7867 129.421 28.4666 129.147 28.2314C128.874 27.9961 128.532 27.8785 128.123 27.8785C127.711 27.8785 127.364 27.9961 127.082 28.2314C126.804 28.4666 126.594 28.7867 126.452 29.1917C126.313 29.5967 126.243 30.0575 126.243 30.5743C126.243 31.0912 126.313 31.552 126.452 31.957C126.594 32.362 126.804 32.6821 127.082 32.9173C127.364 33.1487 127.711 33.2645 128.123 33.2645ZM136.552 29.8628V35H134.088V26.114H136.437V27.6818H136.541C136.738 27.165 137.067 26.7561 137.53 26.4553C137.993 26.1506 138.554 25.9983 139.214 25.9983C139.831 25.9983 140.369 26.1333 140.828 26.4032C141.287 26.6732 141.643 27.0589 141.898 27.5603C142.153 28.0578 142.28 28.6517 142.28 29.3421V35H139.815V29.7818C139.819 29.238 139.68 28.8137 139.399 28.509C139.117 28.2005 138.73 28.0462 138.236 28.0462C137.904 28.0462 137.611 28.1176 137.357 28.2603C137.106 28.403 136.909 28.6113 136.767 28.8851C136.628 29.1551 136.556 29.481 136.552 29.8628Z" fill="#4B4B4B"/>
</svg>
