<svg width="41" height="40" viewBox="0 0 41 40" fill="none" xmlns="http://www.w3.org/2000/svg">
<path d="M27.18 35V31.6667C27.18 29.8986 26.4776 28.2029 25.2274 26.9526C23.9771 25.7024 22.2815 25 20.5133 25H10.5133C8.74524 25 7.04954 25.7024 5.7993 26.9526C4.54906 28.2029 3.84668 29.8986 3.84668 31.6667V35M37.18 34.9998V31.6665C37.1789 30.1894 36.6873 28.7544 35.7823 27.587C34.8773 26.4196 33.6102 25.5858 32.18 25.2165M27.18 5.21647C28.614 5.58364 29.8851 6.41764 30.7927 7.58699C31.7004 8.75634 32.1931 10.1945 32.1931 11.6748C32.1931 13.1551 31.7004 14.5933 30.7927 15.7626C29.8851 16.932 28.614 17.766 27.18 18.1331M22.18 11.6667C22.18 15.3486 19.1952 18.3333 15.5133 18.3333C11.8314 18.3333 8.84668 15.3486 8.84668 11.6667C8.84668 7.98477 11.8314 5 15.5133 5C19.1952 5 22.18 7.98477 22.18 11.6667Z" stroke="#6C8636" stroke-width="2.5" stroke-linecap="round" stroke-linejoin="round"/>
</svg>
